<svg xmlns="http://www.w3.org/2000/svg" xmlns:xlink="http://www.w3.org/1999/xlink" width="43.979" height="52.231" viewBox="0 0 43.979 52.231"><defs><style>.a{fill:url(#a);}.b{fill:#fff;}</style><linearGradient id="a" x1="0.5" y1="0.208" x2="0.5" y2="1" gradientUnits="objectBoundingBox"><stop offset="0" stop-color="#6052cd"/><stop offset="1" stop-color="#0425fa"/></linearGradient></defs><g transform="translate(-180 -300)"><path class="a" d="M1362.39,400.7a112.154,112.154,0,0,1,2.23-17.915c.162-.81.681-1.1,1.5-1.112a32.109,32.109,0,0,0,11.8-2.177,12.747,12.747,0,0,0,5.713-3.947,1.141,1.141,0,0,1,1.916-.017,10.3,10.3,0,0,0,4.349,3.409,29.529,29.529,0,0,0,11.913,2.694c2.22.078,2.195.093,2.62,2.307a91.867,91.867,0,0,1,1.905,20.333,27.183,27.183,0,0,1-1.5,8.462,15.47,15.47,0,0,1-5.864,7.1,71.375,71.375,0,0,1-12.49,6.907,4.5,4.5,0,0,1-4.182-.028,85.638,85.638,0,0,1-12.113-6.611c-4.855-3.269-7.154-7.879-7.531-13.582C1362.527,404.59,1362.476,402.645,1362.39,400.7Zm16.275,4.89c-.22-.208-.415-.383-.6-.568-1.512-1.5-3-3.033-4.551-4.491a1.779,1.779,0,0,0-1.326-.446c-.991.181-1.192,1.331-.408,2.124,1.818,1.837,3.655,3.656,5.485,5.481.912.91,1.263.946,2.351.223q8.516-5.659,17.029-11.323a3.138,3.138,0,0,0,.454-.325,1.215,1.215,0,0,0-1.306-2.024,4.181,4.181,0,0,0-.612.374q-3.86,2.563-7.717,5.13Z" transform="translate(-1182.39 -75.022)"/><path class="b" d="M1425.416,505.778l8.8-5.845q3.859-2.564,7.717-5.13a4.178,4.178,0,0,1,.612-.374,1.215,1.215,0,0,1,1.306,2.024,3.129,3.129,0,0,1-.454.325q-8.514,5.663-17.029,11.323c-1.088.723-1.438.687-2.351-.223-1.83-1.825-3.667-3.643-5.485-5.481-.784-.793-.583-1.944.408-2.124a1.778,1.778,0,0,1,1.326.446c1.553,1.459,3.04,2.988,4.551,4.491C1425,505.394,1425.2,505.57,1425.416,505.778Z" transform="translate(-1229.141 -175.208)"/></g></svg>
