<svg xmlns="http://www.w3.org/2000/svg" xmlns:xlink="http://www.w3.org/1999/xlink" width="92" height="55" viewBox="0 10 92 55"><defs><style>.a{fill:url(#a);}.b{fill:#fff;}.c{fill:snow;}.d{filter:url(#f);}.e{filter:url(#d);}.f{filter:url(#b);}</style><linearGradient id="a" x1="0.5" x2="0.5" y2="1" gradientUnits="objectBoundingBox"><stop offset="0" stop-color="#8652cd"/><stop offset="1" stop-color="#0425fa"/></linearGradient><filter id="b" x="0" y="1.753" width="67.223" height="67.223" filterUnits="userSpaceOnUse"><feOffset dy="3" input="SourceAlpha"/><feGaussianBlur stdDeviation="10" result="c"/><feFlood flood-opacity="0.776"/><feComposite operator="in" in2="c"/><feComposite in="SourceGraphic"/></filter><filter id="d" x="12.78" y="10.687" width="67.223" height="67.223" filterUnits="userSpaceOnUse"><feOffset dy="3" input="SourceAlpha"/><feGaussianBlur stdDeviation="10" result="e"/><feFlood flood-opacity="0.776"/><feComposite operator="in" in2="e"/><feComposite in="SourceGraphic"/></filter><filter id="f" x="25.56" y="0" width="67.223" height="67.223" filterUnits="userSpaceOnUse"><feOffset dy="3" input="SourceAlpha"/><feGaussianBlur stdDeviation="10" result="g"/><feFlood flood-opacity="0.776"/><feComposite operator="in" in2="g"/><feComposite in="SourceGraphic"/></filter></defs><g transform="translate(-145.89 -46.447)"><rect class="a" width="50.564" height="52.231" rx="11" transform="translate(167 59)"/><g transform="translate(175.89 67.89)"><rect class="b" width="2.223" height="34.431" rx="1.111" transform="translate(2.477 0)"/><rect class="b" width="2.223" height="34.431" rx="1.111" transform="translate(15.257 0)"/><rect class="b" width="2.223" height="34.431" rx="1.111" transform="translate(28.037 0)"/><g class="f" transform="matrix(1, 0, 0, 1, -30, -21.44)"><circle class="c" cx="3.612" cy="3.612" r="3.612" transform="translate(30 28.75)"/></g><g class="e" transform="matrix(1, 0, 0, 1, -30, -21.44)"><circle class="c" cx="3.612" cy="3.612" r="3.612" transform="translate(42.78 37.69)"/></g><g class="d" transform="matrix(1, 0, 0, 1, -30, -21.44)"><circle class="c" cx="3.612" cy="3.612" r="3.612" transform="translate(55.56 27)"/></g></g></g></svg>
