<svg xmlns="http://www.w3.org/2000/svg" width="95.446" height="81.626" viewBox="0 0 95.446 81.626"><defs><style>.a{fill:#fff;}.b,.c{fill:none;}.b{stroke:#fff;}.c{stroke:#8652cd;}</style></defs><g transform="translate(-656.5 -1364.5)"><g transform="translate(663.499 1365)"><g transform="translate(12.404 11.598)"><path class="a" d="M561.813,442.814h-2.047l-.194-2.11h-2.2v2.133l2.011.184v4.4h-4.229l-.221,2.189h-2.057l-.147-2.139h-2.31l.057.058.118-2.292H555v-2.312h-4.361l-.219-2.311h-4.249v-4.331l1.992-.24v-2.069l-2.047-.233V427.1l-2.23-.258V422.56l2.033-.138.24-2.178h1.935l.169,2.179,2.215.112-.042-.057-.078,2.446.054-.051-2.107-.161v2.3l2.076.167.223,2.051h4.4l.22-2.055,2.231-.2v-4.368h1.994l.2,2.11h4.389l.221-2.188H566.5l-.053-.045v2.2l2.113.217v4.375c-.713-.1-1.334-.182-1.957-.264-.087-.637-.172-1.278-.26-1.939h-2.126v2.372l2.406-.463-.177,4.894.053-.049h-2.273l-.2-2.236-2.185-.149v-4.377h-2.214v6.717l2.107.133v2.046l-2.107.269v2.145l2.144.162v4.341Zm-4.5-11.194h-6.738v6.723h6.738Z" transform="translate(-511.933 -392.963)"/><path class="a" d="M529.417,419.333h2.232v-2.215l-2.1-.157v-2.022h4.383l.2-2.233,2.129-.19V405.98l2.207-.322-.045-.063v4.726h2.386l-.046-.046v4.579h-4.472l-.239,2.076-2.049.24v2.112h2.169l.3-2h4.215l.21,2.043h2.247l-.062-.059v4.567h-4.413l-.239-2.1h-2.17v4.523H543v2.035l-2.105.227L540.7,430.7l-2.358-.206.027.038.182-2.023H536.3l-.2,2.048h-1.959l-.191-2.11h-6.674v-2.063l2.088-.2.114-2.232-.052.045,2.5-.156-.248,2.336h2.266V424c-.762-.041-1.417-.076-2.078-.107-.08-.726-.157-1.456-.244-2.28h-2.2l.047.047v-2.387Z" transform="translate(-513.603 -394.436)"/><path class="a" d="M530.58,411.26h-15.7V395.513h15.7ZM517.1,397.716v11.232h11.232V397.716Z" transform="translate(-514.848 -395.449)"/><path class="a" d="M567.772,395.522v15.657H552.089V395.522ZM554.289,408.9H565.51V397.757H554.289Z" transform="translate(-511.108 -395.448)"/><path class="a" d="M514.851,432.655h15.714v15.694H514.851ZM528.317,446.2V434.941H517.111V446.2Z" transform="translate(-514.851 -391.716)"/><path class="a" d="M539.527,406.251l2.247.167v-2.312l-2.092-.206v-4.27h4.281l.258,2.116,2.049.2v11.131l2.231.224v6.545l-2.044.155-.241,2.165h-1.949l-.145-2.128-2.265-.169.062.059V417.88l2.185-.249V413.25L541.919,413c0-.755,0-1.413,0-2.072.744-.041,1.491-.079,2.156-.113v-2.106h-2.257l.152,2.274-2.437-.107.046.046,0-4.726Z" transform="translate(-512.371 -395.035)"/><path class="a" d="M554.348,420.8l-.148-2.23-2.109-.176V416.42l2.107-.255.15-2H565.5v1.973h-4.421v2.271h4.5l.11-1.963h2.033v6.647h-2.105l.053.045-.114-2.384h-6.8v-4.48h-2.333v4.477h-2.139Z" transform="translate(-511.108 -393.574)"/><path class="a" d="M523.433,418.634l-1.746.11-.259,2.187h-1.977l-.215-2.236h-4.372v-6.646h4.369l.168,2.106h2.124l.224-2.116h4.226v1.946C521.946,413.776,524.631,417.028,523.433,418.634Z" transform="translate(-514.85 -393.788)"/><path class="a" d="M564.814,434.718v2.2l2.092.138v11.072h-1.984l-.172-2.122h-4.63l.058.059q0-2.354,0-4.709l-.039.058h2.409v-6.662h2.315Z" transform="translate(-510.301 -391.509)"/><path class="a" d="M537.51,428.219l.216,2.427h4.492l.128-2.022h2.006v8.729l-1.977.274-.221,2.023h-2.073c0-1.4,0-2.767,0-4.139.684-.1,1.372-.189,2.1-.287v-2.061H539.9l.206,2.377-2.285-.45L537.6,433.1l-2.021-.106v-4.25c.723-.175,1.343-.325,1.959-.479Z" transform="translate(-512.767 -392.162)"/><path class="a" d="M518.871,424.779l4.535-.282.228-2.1c.632-.07,1.217-.135,1.81-.2l-.025-.015.386,4.577,2.059.246.218,2.114h6.557v4.405h-1.973l-.132-2.125h-6.609l-.255-2.238-2.035-.244-.2-2.1h-4.4l-.128-2.093Z" transform="translate(-514.447 -392.769)"/><path class="a" d="M537.935,445.349l-2.053.117-.234,2.049h-4.188v-4.376h4.3l.261-2.183h1.919Z" transform="translate(-513.182 -390.882)"/><path class="a" d="M544.339,443.018l2.018.089.216-2.153h2.076c-.086,1.554-.168,3.069-.249,4.581l.051-.036-2.009-.091-.248,2.14h-6.546V445.48h4.34l.392-2.49Z" transform="translate(-512.359 -390.882)"/><path class="a" d="M529.719,422.888q-2.445-.051-4.894-.1l.021.012c.109-1.229.256-2.454.328-3.683.055-.928.011-1.861.011-2.9h4.478v2.055l.053-.056-2.231.135V420.6h2.23l-.047-.047v2.384Z" transform="translate(-513.849 -393.369)"/><path class="a" d="M537.412,397.6l.213-2.089h8.806v2.029h-9.074Z" transform="translate(-512.589 -395.449)"/><path class="a" d="M544.379,443.192h-4.721v-2l2.105-.224.2-2.017h4.218v1.988l-2.113.13c.089.751.174,1.457.263,2.16Z" transform="translate(-512.358 -391.084)"/><path class="a" d="M535.674,436.9v4.209h-4.236V436.9Z" transform="translate(-513.184 -391.289)"/><path class="a" d="M537.741,397.358v4.523h-1.9l-.279-2.011-2.008-.219v-2.231q2.118,0,4.246,0Z" transform="translate(-512.972 -395.264)"/><path class="a" d="M549.876,422.546l.115-2.345h4.585l-.062-.05-.229,2.337h-4.45Z" transform="translate(-511.335 -392.973)"/><path class="a" d="M549.987,407.889v4.281h-1.994v-4.281Z" transform="translate(-511.52 -394.205)"/><path class="a" d="M547.966,405.965v-4.231h1.967v4.231Z" transform="translate(-511.523 -394.824)"/><path class="a" d="M519.018,426.579v4.2H516.9v-4.2Z" transform="translate(-514.645 -392.327)"/><path class="a" d="M531.435,407.875h1.936v4.338h-1.936Z" transform="translate(-513.184 -394.207)"/><path class="a" d="M519.106,424.708l-2.187-.373v-1.961h2.153c0,.768,0,1.574,0,2.383Z" transform="translate(-514.643 -392.749)"/><path class="a" d="M564.385,432.631h2.138v2.1l-2.138.206.054.037v-2.389Z" transform="translate(-509.873 -391.724)"/><path class="a" d="M550.042,444.983v2.18h-1.92c-.162-.724-.311-1.4-.465-2.071l-.055.04q1.246-.041,2.5-.089Z" transform="translate(-511.559 -390.477)"/><path class="a" d="M521.107,430.554V428.59h1.947v1.964Z" transform="translate(-514.222 -392.125)"/><path class="a" d="M549.9,414.131h2.2v1.926h-2.11Z" transform="translate(-511.328 -393.578)"/><path class="a" d="M566.506,412.066v1.942h-1.979v-1.942Z" transform="translate(-509.858 -393.786)"/><path class="a" d="M552.043,414.115v-2.063H554.1v1.96Z" transform="translate(-511.113 -393.787)"/><path class="a" d="M527.277,412.03h2.076v2h-2.076Z" transform="translate(-513.602 -393.789)"/><path class="a" d="M537.451,405.831l.14-1.958h2.149v1.951l.054-.056h-2.388Z" transform="translate(-512.584 -394.609)"/><path class="a" d="M560.3,444.978v2.175h-1.973V445.04h2.031Z" transform="translate(-510.481 -390.478)"/><path class="a" d="M531.441,395.455h1.886v2.105h-1.886Z" transform="translate(-513.184 -395.455)"/><path class="a" d="M535.439,405.791h-1.885v-1.974h1.885Z" transform="translate(-512.971 -394.615)"/><path class="a" d="M549.763,424.512l2.347-.149v2.079h-2.061c-.081-.709-.155-1.346-.23-1.982Z" transform="translate(-511.342 -392.549)"/><path class="a" d="M554.124,432.718v2.022l-2.026.1v-2.121Z" transform="translate(-511.107 -391.71)"/><path class="a" d="M539.674,414.136h2.084v1.928h-2.084Z" transform="translate(-512.356 -393.577)"/><path class="a" d="M525.564,406.184h-6.506v-6.505h6.506Z" transform="translate(-514.428 -395.03)"/><path class="a" d="M562.763,406.2h-6.472v-6.528h6.472Z" transform="translate(-510.686 -395.031)"/><path class="a" d="M519.01,436.871h6.555v6.562H519.01Z" transform="translate(-514.433 -391.292)"/></g><path class="b" d="M436.7,1381.68V1363.3h16.683" transform="translate(-436.701 -1363.305)"/><path class="b" d="M453.384,1381.68V1363.3H436.7" transform="translate(-371.62 -1363.305)"/><path class="b" d="M436.7,1363.3v18.375h16.683" transform="translate(-436.701 -1301.054)"/><path class="b" d="M453.384,1363.3v18.375H436.7" transform="translate(-371.62 -1301.054)"/></g><path class="c" d="M618.67,1292h95.446" transform="translate(37.83 113)"/></g></svg>