<svg xmlns="http://www.w3.org/2000/svg" xmlns:xlink="http://www.w3.org/1999/xlink" width="91.076" height="84.897" viewBox="0 0 91.076 84.897"><defs><style>.a{fill:#fff;stroke:#fff;}.b{fill:#8652cd;}.c{filter:url(#a);}</style><filter id="a" x="52.883" y="42.965" width="38.192" height="38.192" filterUnits="userSpaceOnUse"><feOffset dy="3" input="SourceAlpha"/><feGaussianBlur stdDeviation="3" result="b"/><feFlood flood-opacity="0.161"/><feComposite operator="in" in2="b"/><feComposite in="SourceGraphic"/></filter></defs><g transform="translate(-321.96 -1364.496)"><g transform="translate(322.459 1365)"><path class="a" d="M2035.079,385.849v52.243h-71.089c-.021-.285-.055-.548-.056-.812q-.032-6.618-.054-13.236a2.97,2.97,0,0,1,1.871-3.124c1.226-.469,2.384-.086,3.5,1.088,4.356,4.6,9.659,6.21,15.691,4.323,6.07-1.9,9.594-6.295,10.483-12.571a14.992,14.992,0,0,0-26.3-11.518,2.906,2.906,0,0,1-5.237-1.928q-.006-6.755,0-13.51c0-.267.023-.534.041-.914h1.107q14.468,0,28.936-.006a7.779,7.779,0,0,0,5.095-13.811,10.237,10.237,0,1,1,13.654-.023,7.914,7.914,0,0,0-2.818,6.974,7.521,7.521,0,0,0,6.662,6.705c3.244.2,6.506.1,9.761.117C2029.2,385.86,2032.092,385.849,2035.079,385.849Z" transform="translate(-1963.877 -354.2)"/><g class="c" transform="matrix(1, 0, 0, 1, -0.5, -0.5)"><circle class="b" cx="10.096" cy="10.096" r="10.096" transform="translate(61.88 48.97)"/></g></g></g></svg>