<svg xmlns="http://www.w3.org/2000/svg" xmlns:xlink="http://www.w3.org/1999/xlink" width="90.431" height="95.078" viewBox="0 0 90.431 95.078"><defs><style>.a,.e{fill:none;}.a{stroke:#fff;}.b{fill:#fff;}.c{fill:#6052cd;}.d{stroke:none;}.f{filter:url(#i);}.g{filter:url(#g);}.h{filter:url(#e);}.i{filter:url(#c);}.j{filter:url(#a);}</style><filter id="a" x="11.776" y="4.647" width="66.88" height="66.88" filterUnits="userSpaceOnUse"><feOffset dy="3" input="SourceAlpha"/><feGaussianBlur stdDeviation="10" result="b"/><feFlood flood-opacity="0.475"/><feComposite operator="in" in2="b"/><feComposite in="SourceGraphic"/></filter><filter id="c" x="11.776" y="16.423" width="66.88" height="66.88" filterUnits="userSpaceOnUse"><feOffset dy="3" input="SourceAlpha"/><feGaussianBlur stdDeviation="10" result="d"/><feFlood flood-opacity="0.475"/><feComposite operator="in" in2="d"/><feComposite in="SourceGraphic"/></filter><filter id="e" x="23.551" y="16.423" width="66.88" height="66.88" filterUnits="userSpaceOnUse"><feOffset dy="3" input="SourceAlpha"/><feGaussianBlur stdDeviation="10" result="f"/><feFlood flood-opacity="0.475"/><feComposite operator="in" in2="f"/><feComposite in="SourceGraphic"/></filter><filter id="g" x="0" y="16.423" width="66.88" height="66.88" filterUnits="userSpaceOnUse"><feOffset dy="3" input="SourceAlpha"/><feGaussianBlur stdDeviation="10" result="h"/><feFlood flood-opacity="0.475"/><feComposite operator="in" in2="h"/><feComposite in="SourceGraphic"/></filter><filter id="i" x="11.776" y="28.198" width="66.88" height="66.88" filterUnits="userSpaceOnUse"><feOffset dy="3" input="SourceAlpha"/><feGaussianBlur stdDeviation="10" result="j"/><feFlood flood-opacity="0.475"/><feComposite operator="in" in2="j"/><feComposite in="SourceGraphic"/></filter></defs><g transform="translate(-986.549 -1365)"><g transform="translate(1005.541 1365)"><g class="a"><rect class="d" width="52.286" height="93.565" rx="5"/><rect class="e" x="0.5" y="0.5" width="51.286" height="92.565" rx="4.5"/></g><path class="a" d="M559.56,1367h17.783" transform="translate(-542.278 -1360.87)"/><g transform="translate(11.008 31.647)"><g class="j" transform="matrix(1, 0, 0, 1, -30, -31.65)"><circle class="b" cx="3.44" cy="3.44" r="3.44" transform="translate(41.78 31.65)"/></g><g class="i" transform="matrix(1, 0, 0, 1, -30, -31.65)"><circle class="c" cx="3.44" cy="3.44" r="3.44" transform="translate(41.78 43.42)"/></g><g class="h" transform="matrix(1, 0, 0, 1, -30, -31.65)"><circle class="b" cx="3.44" cy="3.44" r="3.44" transform="translate(53.55 43.42)"/></g><g class="g" transform="matrix(1, 0, 0, 1, -30, -31.65)"><circle class="b" cx="3.44" cy="3.44" r="3.44" transform="translate(30 43.42)"/></g><g class="f" transform="matrix(1, 0, 0, 1, -30, -31.65)"><circle class="b" cx="3.44" cy="3.44" r="3.44" transform="translate(41.78 55.2)"/></g></g></g></g></svg>