<svg xmlns="http://www.w3.org/2000/svg" xmlns:xlink="http://www.w3.org/1999/xlink" width="1463" height="1780.718" viewBox="200 120 1463 1780.718"><defs><style>.a{fill:#528fcd;opacity:0.601;}.b{opacity:0.366;fill:url(#c);}.c{filter:url(#d);}.d{filter:url(#a);}</style><filter id="a" x="103.5" y="33.5" width="1456" height="1747.218" filterUnits="userSpaceOnUse"><feOffset dy="3" input="SourceAlpha"/><feGaussianBlur stdDeviation="15" result="b"/><feFlood flood-color="#5291cd" flood-opacity="0.596"/><feComposite operator="in" in2="b"/><feComposite in="SourceGraphic"/></filter><linearGradient id="c" x1="0.233" y1="-0.034" x2="0.5" y2="1" gradientUnits="objectBoundingBox"><stop offset="0" stop-color="#2137d9"/><stop offset="1" stop-color="#a9c8e6"/></linearGradient><filter id="d" x="0" y="0" width="1663" height="941.619" filterUnits="userSpaceOnUse"><feOffset dy="3" input="SourceAlpha"/><feGaussianBlur stdDeviation="49.5" result="e"/><feFlood flood-color="#0028ad" flood-opacity="0.627"/><feComposite operator="in" in2="e"/><feComposite in="SourceGraphic"/></filter></defs><g transform="translate(148.5 75.5)"><g class="d" transform="matrix(1, 0, 0, 1, -148.5, -75.5)"><path class="a" d="M0,0H1366V1580.031s-121.563,115.918-485.305,63.644c-590.489-84.86-880.695,0-880.695,0Z" transform="translate(148.5 75.5)"/></g><g class="c" transform="matrix(1, 0, 0, 1, -148.5, -75.5)"><path class="b" d="M0,0H1366s-79.472,264.214-227.094,425.358-434.658,46.1-729.224,159.365C261.81,641.583.051,644.619.051,644.619Z" transform="translate(148.5 145.5)"/></g></g></svg>
