<svg xmlns="http://www.w3.org/2000/svg" xmlns:xlink="http://www.w3.org/1999/xlink" width="55.292" height="70" viewBox="0 0 55.292 70"><defs><style>.a{fill:#fff;}.b{filter:url(#g);}.c{filter:url(#e);}.d{filter:url(#c);}.e{filter:url(#a);}</style><filter id="a" x="20.288" y="7.914" width="24.845" height="62.086" filterUnits="userSpaceOnUse"><feOffset dy="3" input="SourceAlpha"/><feGaussianBlur stdDeviation="3" result="b"/><feFlood flood-opacity="0.161"/><feComposite operator="in" in2="b"/><feComposite in="SourceGraphic"/></filter><filter id="c" x="10.15" y="7.916" width="24.847" height="62.084" filterUnits="userSpaceOnUse"><feOffset dy="3" input="SourceAlpha"/><feGaussianBlur stdDeviation="3" result="d"/><feFlood flood-opacity="0.161"/><feComposite operator="in" in2="d"/><feComposite in="SourceGraphic"/></filter><filter id="e" x="0" y="0" width="24.846" height="50.833" filterUnits="userSpaceOnUse"><feOffset dy="3" input="SourceAlpha"/><feGaussianBlur stdDeviation="3" result="f"/><feFlood flood-opacity="0.161"/><feComposite operator="in" in2="f"/><feComposite in="SourceGraphic"/></filter><filter id="g" x="30.438" y="7.914" width="24.854" height="42.918" filterUnits="userSpaceOnUse"><feOffset dy="3" input="SourceAlpha"/><feGaussianBlur stdDeviation="3" result="h"/><feFlood flood-opacity="0.161"/><feComposite operator="in" in2="h"/><feComposite in="SourceGraphic"/></filter></defs><g transform="translate(450.92 -587.3)"><g class="e" transform="matrix(1, 0, 0, 1, -450.92, 587.3)"><path class="a" d="M-276.09,677.4q0,10.207,0,20.415c0,1.2-.393,1.586-1.606,1.587-1.276,0-2.552.006-3.828,0a1.26,1.26,0,0,1-1.409-1.419q0-20.638,0-41.276a1.236,1.236,0,0,1,1.371-1.381q2.041-.012,4.083,0c.956,0,1.386.439,1.387,1.407Q-276.088,667.064-276.09,677.4Z" transform="translate(312.22 -641.4)"/></g><g class="d" transform="matrix(1, 0, 0, 1, -450.92, 587.3)"><path class="a" d="M-362.382,677.31q0-10.175,0-20.35c0-1.258.371-1.628,1.627-1.629s2.509,0,3.764,0c1,0,1.453.438,1.454,1.419q0,20.606,0,41.211a1.258,1.258,0,0,1-1.437,1.448c-1.276.006-2.552,0-3.828,0-1.171,0-1.579-.4-1.58-1.559Q-362.383,687.58-362.382,677.31Z" transform="translate(381.53 -641.41)"/></g><g class="c" transform="matrix(1, 0, 0, 1, -450.92, 587.3)"><path class="a" d="M-441.92,609.729q0-7.429,0-14.859c0-1.145.424-1.566,1.57-1.568,1.3,0,2.593-.006,3.89,0a1.237,1.237,0,0,1,1.382,1.373q.005,15.018,0,30.036a1.252,1.252,0,0,1-1.413,1.413c-1.318.01-2.636.007-3.954,0-1.022,0-1.475-.456-1.475-1.476Q-441.922,617.19-441.92,609.729Z" transform="translate(450.92 -587.3)"/></g><g class="b" transform="matrix(1, 0, 0, 1, -450.92, 587.3)"><path class="a" d="M-196.546,667.785q0,5.453,0,10.907c0,1.109-.43,1.536-1.537,1.539-1.3,0-2.594.008-3.891,0a1.266,1.266,0,0,1-1.42-1.417q-.009-11.034,0-22.068a1.245,1.245,0,0,1,1.4-1.423q2.041-.01,4.082,0a1.2,1.2,0,0,1,1.368,1.366Q-196.541,662.236-196.546,667.785Z" transform="translate(242.84 -641.4)"/></g></g></svg>
