<svg xmlns="http://www.w3.org/2000/svg" xmlns:xlink="http://www.w3.org/1999/xlink" width="66.984" height="68" viewBox="0 0 66.984 68"><defs><style>.a{fill:#fff;}.b{fill:#14ff00;}.c{filter:url(#c);}.d{filter:url(#a);}</style><filter id="a" x="0" y="0" width="66.984" height="68" filterUnits="userSpaceOnUse"><feOffset dy="3" input="SourceAlpha"/><feGaussianBlur stdDeviation="3" result="b"/><feFlood flood-opacity="0.161"/><feComposite operator="in" in2="b"/><feComposite in="SourceGraphic"/></filter><filter id="c" x="13.207" y="13.465" width="41.949" height="40.143" filterUnits="userSpaceOnUse"><feOffset dy="3" input="SourceAlpha"/><feGaussianBlur stdDeviation="3" result="d"/><feFlood flood-opacity="0.161"/><feComposite operator="in" in2="d"/><feComposite in="SourceGraphic"/></filter></defs><g transform="translate(589 -80.706)"><g class="d" transform="matrix(1, 0, 0, 1, -589, 80.71)"><path class="a" d="M-580,136.511c.366-1.048.743-2.092,1.1-3.144,1.039-3.1,2.064-6.2,3.107-9.3a.9.9,0,0,0-.086-.816,23.514,23.514,0,0,1-3.022-8.96,24.062,24.062,0,0,1,4.1-17.1,23.581,23.581,0,0,1,13.77-9.7,24.047,24.047,0,0,1,29.291,17.628,24.467,24.467,0,0,1-13.337,28.107,23.523,23.523,0,0,1-12.667,2.038,23.1,23.1,0,0,1-8.35-2.57,1.4,1.4,0,0,0-1.2-.106c-4.038,1.327-8.085,2.627-12.128,3.939a3.125,3.125,0,0,0-.378.179Zm6.064-5.869c.235-.069.369-.106.5-.149,2.211-.717,4.424-1.427,6.63-2.158a1.215,1.215,0,0,1,1.149.127,19.447,19.447,0,0,0,13.5,2.851,19.463,19.463,0,0,0,12.622-7.211,19.749,19.749,0,0,0,4.243-17.052A19.935,19.935,0,0,0-547.5,92.128a18.919,18.919,0,0,0-9.35-1.418,19.44,19.44,0,0,0-7.971,2.469,20.131,20.131,0,0,0-7.759,7.743,20.311,20.311,0,0,0-2.022,15.325,20.142,20.142,0,0,0,2.95,6.505.956.956,0,0,1,.089.7c-.181.671-.422,1.325-.641,1.986C-572.77,127.139-573.337,128.841-573.936,130.642Z" transform="translate(589 -80.71)"/></g><g class="c" transform="matrix(1, 0, 0, 1, -589, 80.71)"><path class="b" d="M-437.54,222.5c1.105-.325,1.521.434,1.879,1.333.5,1.255,1.008,2.509,1.575,3.735a1.65,1.65,0,0,1-.186,1.829c-.392.521-.8,1.03-1.244,1.511a.879.879,0,0,0-.132,1.167,15.863,15.863,0,0,0,6.428,6.169c.51.258,1.035.489,1.561.715.7.3.908.252,1.406-.338.534-.633,1.053-1.279,1.57-1.926.542-.679.811-.771,1.593-.408,1.514.7,3.013,1.439,4.527,2.145a.942.942,0,0,1,.592.979c-.051,2.646-1.388,4.119-4.3,4.962a5.873,5.873,0,0,1-3.473-.162,26.97,26.97,0,0,1-6.285-2.6,24.776,24.776,0,0,1-6.864-6.634,16.137,16.137,0,0,1-2.611-4.583,6.722,6.722,0,0,1,1.363-6.946A2.556,2.556,0,0,1-437.54,222.5Z" transform="translate(464.13 -202.96)"/></g></g></svg>
